<?xml version="1.0" encoding="UTF-8" standalone="no"?>
<svg
 xmlns="http://www.w3.org/2000/svg"
 version="1.1"
 width="650" height="140" id="svg2"><g transform="matrix(0.05,0,0,-0.05,115.975,96.0)"> <path d="M50 0v15h40c137 0 150 27 150 56v1384c0 31 -18 50 -150 50h-40v15h1090c7 0 10 -6 10 -9l25 -380l-20 -2l-16 254c-6 88 -39 117 -127 117h-747v-1480h65v740h385c40 0 45 188 45 270v60h15v-680h-15v60c0 88 -5 270 -45 270h-370v-720h747c91 0 121 32 127 117l16 254 l20 -2l-25 -380c0 -7 -7 -9 -10 -9h-1170z" id="E0" transform="translate(0,0)" style="fill:#000000" />  <path d="M680 1040h410.001v-15h-33c-35 0 -109 -5 -158 -68l-269 -345c-8 -10 -13 -19 -13 -33c0 -12 5.83008 -20.1152 12 -29l300 -432c51.5176 -74.3369 87 -103 171 -103h40v-15h-464v15h48c73 0 105 12 105 43c0 15 -9 31 -23 52l-86.5283 125 c-34.1572 49.3291 -97.6943 130.129 -97.6943 130.129v36.8711l197.222 -284l64 -93h80l-357 514c-3 5 -10 14 -16 14s-15 -12 -19 -17l-361 -461c-12 -15 -13 -26 -13 -31c0 -15 20 -29 124 -29h92v-15h-393c-1 0 0 15 0 15h19c65 0 114 17 155 70l359 461c7 9 12 18 12 30 c0 14 -3 26 -11 37l-197 279c-60 85 -102 124 -147 124c-38 0 -57 -11 -86 -34c-4 -3 -10 -5 -14 -5c-10 0 -21 9 -21 20c0 6 3 12 9 16c27 21 62 37 97 37c74 0 109.729 -42.1904 184 -147l197 -278c4 -5 13 -20 18 -20s13 11 17 16l268 344c6 8 11 21 11 26 c0 24 -22 34 -109 34h-101v15z" id="x0" transform="translate(1310,0)" style="fill:#000000" />  <path d="M1124 30l2 -20l-109 -15h-1c-49 0 -72 60 -85 141c-5 31 -16 90 -16 98v487c0 182.4 -132.4 304 -331 304c-200 0 -372 -89 -372 -199c0 -13 -8 -21 -21 -21s-21 8 -21 21c0 121 190 219 411 219c215.4 0 359 -129.6 359 -324v-486l16 -95c14 -84 33 -119 61 -120z M830 637c-74 -106 -284 -118 -389 -129c-193 -20 -352 -112 -352 -264c0 -129 134 -228 324 -228c237 0 417 219 417 429v192zM830 803l15 -17v-341c0 -221 -179 -451 -432 -451c-196 0 -348 101 -348 250c0 172 177 268 374 288c121 12 343 31 383 147c4 12 8 34 8 49v75z " id="a0" transform="translate(2470,0)" style="fill:#000000" />  <path d="M50 0v15h40c137.004 0 150 25.5234 150 55v905c0 37.1201 -28.1562 50 -105 50h-25v15h25l130 3v-1018h60v477c0 296 152.949 543 405 543c201.5 0 275 -98 275 -280v-740h60v477c0 296 152.95 543 405 543c201.5 0 275 -98 275 -280v-695c0 -29.4727 13 -55 150 -55h40 v-15h-420v15h55c137 0 150 25.5273 150 55v692c0 169 -64.75 260 -250 260c-235.82 0 -390 -229.828 -390 -520v-432c0 -29.4766 13 -55 150 -55h60v-15h-500v15h40c137.004 0 150 25.5234 150 55v692c0 169 -64.75 260 -250 260c-235.824 0 -390 -229.828 -390 -520v-432 c0 -29.4766 12.9961 -55 150 -55h60v-15h-500z" id="m0" transform="translate(3620,0)" style="fill:#000000" />  <path d="M240 -410c0 -29 13 -54.999 150 -54.999h75v-15h-440v15h40c137 0 150 26 150 55v1385c0 37 -28 50 -105 50h-25v15h25l130 3v-146v-0.107422c124.726 90.2246 282.807 148.106 417 148.106c248 0 438 -222 438 -525s-184 -525 -438 -525 c-197.064 0 -357 186.816 -357 417v378l25 5s-10 -142 -10 -222v-161c0 -218.592 153.216 -396 342 -396c237 0 414 210 414 504s-183 504 -414 504c-132 0 -292 -58 -417 -153v-1281z" id="p0" transform="translate(5525,0)" style="fill:#000000" />  <path d="M50 0v15h40c137 0 150 26 150 55v1385c0 37 -28 50 -105 50h-45v15h130l120 3v-954c0 -80 5 -279 5 -279h-20v1200h-60v-1420c0 -29 13 -55 150 -55h115v-15h-480z" id="l0" transform="translate(6663,0)" style="fill:#000000" />  <path d="M949 550c35 0 45 35 45 68c0 11 -1 21 -3 30c-39 223 -198 377 -436 377c-201.925 0 -366.74 -211.02 -374.699 -475h768.699zM165 530c0 214.073 101.03 397.477 244.099 473.069c-191.077 -60.4648 -319.099 -241.227 -319.099 -483.069c0 -292 187 -505 455 -505 c226 0 364 98 439 231l18 -10c-78 -139 -225 -241 -457 -241c-281 0 -480 224 -480 525c0 308.924 208.346 525 490 525c286 0 470 -215 470 -505c0 -7 -6 -10 -10 -10h-850z" id="e0" transform="translate(7221,0)" style="fill:#000000" /> </g></svg>
